<svg width="153" height="122" viewBox="0 0 153 122" fill="none" xmlns="http://www.w3.org/2000/svg">
<path fill-rule="evenodd" clip-rule="evenodd" d="M153 61C153 94.6894 125.689 122 92 122C58.3106 122 31 94.6894 31 61C31 27.3106 58.3106 0 92 0C125.689 0 153 27.3106 153 61ZM153 61C153 88.6142 130.614 111 103 111C75.3858 111 53 88.6142 53 61C53 33.3858 75.3858 11 103 11C130.614 11 153 33.3858 153 61ZM31 8H0V115H31V61V8Z" fill="#FF0071"/>
<g filter="url(#filter0_f_16_24)">
<path d="M69.3 77V47.416H82.888C84.7513 47.416 86.2277 47.6453 87.317 48.104C88.435 48.534 89.252 49.1647 89.768 49.996C90.3127 50.7987 90.671 51.7447 90.843 52.834C91.015 53.9233 91.101 55.0843 91.101 56.317C91.101 57.3777 91.0007 58.4813 90.8 59.628C90.628 60.746 90.2123 61.7637 89.553 62.681C88.9223 63.5983 87.919 64.272 86.543 64.702L91.531 77H87.575L82.673 64.573L83.705 65.089C83.5043 65.1463 83.2607 65.1893 82.974 65.218C82.6873 65.2467 82.3003 65.261 81.813 65.261H72.998V77H69.3ZM72.998 62.036H81.297C82.7303 62.036 83.8483 61.9213 84.651 61.692C85.4823 61.4627 86.0843 61.1043 86.457 60.617C86.8583 60.1297 87.1163 59.542 87.231 58.854C87.3457 58.1373 87.403 57.2917 87.403 56.317C87.403 55.3423 87.3457 54.511 87.231 53.823C87.145 53.1063 86.9157 52.5187 86.543 52.06C86.199 51.5727 85.6257 51.2143 84.823 50.985C84.049 50.727 82.974 50.598 81.598 50.598H72.998V62.036ZM98.5686 77V47.416H102.267V77H98.5686ZM120.719 77.344C119.659 77.344 118.498 77.3153 117.236 77.258C115.975 77.2007 114.742 77.129 113.538 77.043C112.363 76.957 111.288 76.8567 110.313 76.742V73.603C111.345 73.689 112.42 73.775 113.538 73.861C114.685 73.947 115.789 74.0187 116.849 74.076C117.939 74.1333 118.856 74.162 119.601 74.162C121.121 74.162 122.339 74.1047 123.256 73.99C124.174 73.8467 124.948 73.5887 125.578 73.216C126.008 72.958 126.324 72.614 126.524 72.184C126.725 71.754 126.84 71.2523 126.868 70.679C126.926 70.1057 126.954 69.4893 126.954 68.83C126.954 67.8553 126.926 67.067 126.868 66.465C126.811 65.863 126.653 65.4043 126.395 65.089C126.166 64.745 125.779 64.5013 125.234 64.358C124.69 64.186 123.959 64.057 123.041 63.971L115.688 63.154C114.312 62.982 113.209 62.6953 112.377 62.294C111.546 61.864 110.915 61.3337 110.485 60.703C110.084 60.0437 109.812 59.2697 109.668 58.381C109.525 57.4637 109.453 56.446 109.453 55.328C109.453 53.522 109.683 52.0743 110.141 50.985C110.629 49.8957 111.331 49.0643 112.248 48.491C113.166 47.9177 114.269 47.545 115.559 47.373C116.878 47.1723 118.383 47.072 120.074 47.072C121.164 47.072 122.282 47.1007 123.428 47.158C124.575 47.2153 125.65 47.3013 126.653 47.416C127.685 47.502 128.531 47.6167 129.19 47.76V50.813C128.445 50.6983 127.585 50.598 126.61 50.512C125.636 50.426 124.632 50.3687 123.6 50.34C122.597 50.2827 121.637 50.254 120.719 50.254C119.143 50.254 117.867 50.3257 116.892 50.469C115.918 50.6123 115.144 50.8703 114.57 51.243C113.94 51.6157 113.538 52.146 113.366 52.834C113.223 53.4933 113.151 54.296 113.151 55.242C113.151 56.36 113.223 57.2343 113.366 57.865C113.538 58.467 113.882 58.897 114.398 59.155C114.943 59.3843 115.746 59.5563 116.806 59.671L123.987 60.488C125.019 60.574 125.922 60.7173 126.696 60.918C127.499 61.09 128.187 61.391 128.76 61.821C129.334 62.251 129.764 62.8673 130.05 63.67C130.222 64.0713 130.351 64.5157 130.437 65.003C130.523 65.4903 130.581 66.035 130.609 66.637C130.667 67.2103 130.695 67.8553 130.695 68.572C130.695 70.206 130.538 71.5677 130.222 72.657C129.907 73.7177 129.463 74.5633 128.889 75.194C128.316 75.8247 127.614 76.2977 126.782 76.613C125.951 76.9283 125.019 77.129 123.987 77.215C122.984 77.301 121.895 77.344 120.719 77.344ZM136.325 77V72.786H140.41V77H136.325Z" fill="white"/>
</g>
<path d="M71 75V47.48H83.64C85.3733 47.48 86.7467 47.6933 87.76 48.12C88.8 48.52 89.56 49.1067 90.04 49.88C90.5467 50.6267 90.88 51.5067 91.04 52.52C91.2 53.5333 91.28 54.6133 91.28 55.76C91.28 56.7467 91.1867 57.7733 91 58.84C90.84 59.88 90.4533 60.8267 89.84 61.68C89.2533 62.5333 88.32 63.16 87.04 63.56L91.68 75H88L83.44 63.44L84.4 63.92C84.2133 63.9733 83.9867 64.0133 83.72 64.04C83.4533 64.0667 83.0933 64.08 82.64 64.08H74.44V75H71ZM74.44 61.08H82.16C83.4933 61.08 84.5333 60.9733 85.28 60.76C86.0533 60.5467 86.6133 60.2133 86.96 59.76C87.3333 59.3067 87.5733 58.76 87.68 58.12C87.7867 57.4533 87.84 56.6667 87.84 55.76C87.84 54.8533 87.7867 54.08 87.68 53.44C87.6 52.7733 87.3867 52.2267 87.04 51.8C86.72 51.3467 86.1867 51.0133 85.44 50.8C84.72 50.56 83.72 50.44 82.44 50.44H74.44V61.08ZM98.2266 75V47.48H101.667V75H98.2266ZM118.832 75.32C117.845 75.32 116.765 75.2933 115.592 75.24C114.419 75.1867 113.272 75.12 112.152 75.04C111.059 74.96 110.059 74.8667 109.152 74.76V71.84C110.112 71.92 111.112 72 112.152 72.08C113.219 72.16 114.245 72.2267 115.232 72.28C116.245 72.3333 117.099 72.36 117.792 72.36C119.205 72.36 120.339 72.3067 121.192 72.2C122.045 72.0667 122.765 71.8267 123.352 71.48C123.752 71.24 124.045 70.92 124.232 70.52C124.419 70.12 124.525 69.6533 124.552 69.12C124.605 68.5867 124.632 68.0133 124.632 67.4C124.632 66.4933 124.605 65.76 124.552 65.2C124.499 64.64 124.352 64.2133 124.112 63.92C123.899 63.6 123.539 63.3733 123.032 63.24C122.525 63.08 121.845 62.96 120.992 62.88L114.152 62.12C112.872 61.96 111.845 61.6933 111.072 61.32C110.299 60.92 109.712 60.4267 109.312 59.84C108.939 59.2267 108.685 58.5067 108.552 57.68C108.419 56.8267 108.352 55.88 108.352 54.84C108.352 53.16 108.565 51.8133 108.992 50.8C109.445 49.7867 110.099 49.0133 110.952 48.48C111.805 47.9467 112.832 47.6 114.032 47.44C115.259 47.2533 116.659 47.16 118.232 47.16C119.245 47.16 120.285 47.1867 121.352 47.24C122.419 47.2933 123.419 47.3733 124.352 47.48C125.312 47.56 126.099 47.6667 126.712 47.8V50.64C126.019 50.5333 125.219 50.44 124.312 50.36C123.405 50.28 122.472 50.2267 121.512 50.2C120.579 50.1467 119.685 50.12 118.832 50.12C117.365 50.12 116.179 50.1867 115.272 50.32C114.365 50.4533 113.645 50.6933 113.112 51.04C112.525 51.3867 112.152 51.88 111.992 52.52C111.859 53.1333 111.792 53.88 111.792 54.76C111.792 55.8 111.859 56.6133 111.992 57.2C112.152 57.76 112.472 58.16 112.952 58.4C113.459 58.6133 114.205 58.7733 115.192 58.88L121.872 59.64C122.832 59.72 123.672 59.8533 124.392 60.04C125.139 60.2 125.779 60.48 126.312 60.88C126.845 61.28 127.245 61.8533 127.512 62.6C127.672 62.9733 127.792 63.3867 127.872 63.84C127.952 64.2933 128.005 64.8 128.032 65.36C128.085 65.8933 128.112 66.4933 128.112 67.16C128.112 68.68 127.965 69.9467 127.672 70.96C127.379 71.9467 126.965 72.7333 126.432 73.32C125.899 73.9067 125.245 74.3467 124.472 74.64C123.699 74.9333 122.832 75.12 121.872 75.2C120.939 75.28 119.925 75.32 118.832 75.32ZM133.349 75V71.08H137.149V75H133.349Z" fill="white"/>
<defs>
<filter id="filter0_f_16_24" x="65.3" y="43.072" width="79.1102" height="38.272" filterUnits="userSpaceOnUse" color-interpolation-filters="sRGB">
<feFlood flood-opacity="0" result="BackgroundImageFix"/>
<feBlend mode="normal" in="SourceGraphic" in2="BackgroundImageFix" result="shape"/>
<feGaussianBlur stdDeviation="2" result="effect1_foregroundBlur_16_24"/>
</filter>
</defs>
</svg>
